HIERARCHY
ROOT Hips
{
	OFFSET	0.00	0.00	0.00
	CHANNELS 6 Xposition Yposition Zposition Zrotation Xrotation Yrotation
	JOINT LeftUpLeg
	{
		OFFSET	 0.126116	-0.014019	-0.065224
		CHANNELS 3 Zrotation Xrotation Yrotation
		JOINT LeftLeg
		{
			OFFSET	 0.000000	 0.000000	 0.569914
			CHANNELS 3 Zrotation Xrotation Yrotation
			JOINT LeftFoot
			{
				OFFSET	 0.000000	 0.000000	 0.544423
				CHANNELS 3 Zrotation Xrotation Yrotation
				JOINT LeftToeBase
				{
					OFFSET	 0.000000	 0.000000	 0.207117
					CHANNELS 3 Zrotation Xrotation Yrotation
					End Site
					{
						OFFSET	 0.000000	 0.000000	 0.207117
					}
				}
			}
		}
	}
	JOINT RightUpLeg
	{
		OFFSET	-0.124023	-0.008373	-0.065224
		CHANNELS 3 Zrotation Xrotation Yrotation
		JOINT RightLeg
		{
			OFFSET	 0.000000	 0.000000	 0.570047
			CHANNELS 3 Zrotation Xrotation Yrotation
			JOINT RightFoot
			{
				OFFSET	 0.000000	 0.000000	 0.544354
				CHANNELS 3 Zrotation Xrotation Yrotation
				JOINT RightToeBase
				{
					OFFSET	 0.000000	 0.000000	 0.207540
					CHANNELS 3 Zrotation Xrotation Yrotation
					End Site
					{
						OFFSET	 0.000000	 0.000000	 0.207540
					}
				}
			}
		}
	}
	JOINT Spine
	{
		OFFSET	 0.000184	-0.007763	 0.117403
		CHANNELS 3 Zrotation Xrotation Yrotation
		JOINT Spine1
		{
			OFFSET	 0.000000	 0.000000	 0.137269
			CHANNELS 3 Zrotation Xrotation Yrotation
			JOINT Spine2
			{
				OFFSET	 0.000000	 0.000000	 0.156879
				CHANNELS 3 Zrotation Xrotation Yrotation
				JOINT LeftShoulder
				{
					OFFSET	 0.080501	-0.002496	 0.160144
					CHANNELS 3 Zrotation Xrotation Yrotation
					JOINT LeftArm
					{
						OFFSET	 0.000000	 0.000000	 0.164363
						CHANNELS 3 Zrotation Xrotation Yrotation
						JOINT LeftForeArm
						{
							OFFSET	 0.000000	 0.000000	 0.364576
							CHANNELS 3 Zrotation Xrotation Yrotation
							JOINT LeftHand
							{
								OFFSET	 0.000000	 0.000000	 0.360812
								CHANNELS 3 Zrotation Xrotation Yrotation
								JOINT LeftHandIndex1
								{
									OFFSET	 0.000000	 0.000000	 0.086006
									CHANNELS 3 Zrotation Xrotation Yrotation
									JOINT LeftHandIndex2
									{
										OFFSET	 0.000000	 0.000000	 0.047236
										CHANNELS 3 Zrotation Xrotation Yrotation
										JOINT LeftHandIndex3
										{
											OFFSET	-0.004284	-0.000551	 0.038166
											CHANNELS 3 Zrotation Xrotation Yrotation
											End Site
											{
												OFFSET	-0.004284	-0.000551	 0.038166
											}
										}
									}
								}
							}
						}
					}
				}
				JOINT Neck
				{
					OFFSET	 0.000000	 0.000000	 0.176489
					CHANNELS 3 Zrotation Xrotation Yrotation
					JOINT Head
					{
						OFFSET	 0.000000	-0.001747	 0.077940
						CHANNELS 3 Zrotation Xrotation Yrotation
						End Site
						{
							OFFSET	 0.000000	-0.001747	 0.077940
						}
					}
				}
				JOINT RightShoulder
				{
					OFFSET	-0.080363	 0.000306	 0.159706
					CHANNELS 3 Zrotation Xrotation Yrotation
					JOINT RightArm
					{
						OFFSET	 0.000000	 0.000000	 0.164196
						CHANNELS 3 Zrotation Xrotation Yrotation
						JOINT RightForeArm
						{
							OFFSET	 0.000000	 0.000000	 0.365611
							CHANNELS 3 Zrotation Xrotation Yrotation
							JOINT RightHand
							{
								OFFSET	 0.000000	 0.000000	 0.360648
								CHANNELS 3 Zrotation Xrotation Yrotation
								JOINT RightHandIndex1
								{
									OFFSET	 0.000000	 0.000000	 0.069977
									CHANNELS 3 Zrotation Xrotation Yrotation
									JOINT RightHandIndex2
									{
										OFFSET	 0.000000	 0.000000	 0.052305
										CHANNELS 3 Zrotation Xrotation Yrotation
										JOINT RightHandIndex3
										{
											OFFSET	 0.009002	-0.000782	 0.042196
											CHANNELS 3 Zrotation Xrotation Yrotation
											End Site
											{
												OFFSET	 0.009002	-0.000782	 0.042196
											}
										}
									}
								}
							}
						}
					}
				}
			}
		}
	}
}
MOTION
Frames:    4
Frame Time: 0.03333334
 0.000505	 0.044533	 1.272394	-0.086105	 2.361789	 0.719675	 20.397480	-7.652618	 176.526100	 2.322300	-14.850300	 0.702451	-0.614397	 71.097020	 0.473304	-2.385833	 28.452750	 0.000004	-12.901640	-6.678834	-177.286900	-0.777249	-12.771730	 0.967635	 5.740230	 69.853000	 0.551387	 2.384659	 28.388700	-0.000001	-1.980617	 7.111372	-0.389315	 1.467742	-4.789996	 0.368784	-3.887439	 8.479758	 0.689177	-91.195490	 69.967700	-177.887900	-7.623799	 0.465816	-25.198190	 23.732610	-0.058313	-1.527675	-9.206581	-10.737300	-4.155610	-2.027600	 6.559038	 9.033609	-5.188889	 0.308190	 3.541030	-5.234859	 0.342567	 0.430617	 4.316649	 17.317160	-6.538525	-9.075304	-13.241510	 1.755941	 89.050240	 68.930050	 177.439200	 9.753880	 10.137600	 15.980700	-25.520890	-2.943528	 10.272780	 6.290884	-10.910840	 6.312284	 1.803333	 3.979147	-15.098590	 4.898592	 3.004813	-9.310344	 5.224449	 0.395017	 2.014677
 0.000408	 0.046321	 1.270966	-0.075864	 2.557209	 0.755440	 20.660450	-8.468421	 176.574900	 2.291046	-15.855660	 0.740264	-0.113996	 71.478100	-0.030353	-2.385833	 28.452750	 0.000004	-13.212930	-7.499974	-177.438000	-0.749956	-13.832140	 1.053012	 5.616201	 70.303700	 0.692033	 2.384659	 28.388700	-0.000001	-3.911695	 7.346948	-0.414324	 1.453390	-5.201160	 0.380840	-3.867402	 9.262277	 0.736218	-91.143100	 69.606520	-177.765700	-7.155021	 0.749697	-26.200170	 22.564500	-0.002474	-1.970723	-8.841641	-11.010650	-4.272695	-2.027600	 6.559038	 9.033609	-5.188889	 0.308190	 3.541030	-5.234859	 0.342567	 0.430617	 4.424638	 18.260990	-6.835964	-9.049359	-13.849060	 1.713372	 88.978790	 68.433650	 177.292500	 9.279078	 10.699970	 16.359330	-24.540610	-2.880978	 11.223360	 5.906384	-10.992540	 6.177806	 1.803333	 3.979147	-15.098590	 4.898592	 3.004813	-9.310344	 5.224449	 0.395017	 2.014677
 0.000164	 0.050703	 1.267598	-0.051725	 2.986772	 0.833585	 21.245550	-10.247740	 176.698600	 2.224349	-17.986060	 0.815994	 1.106657	 72.243850	-1.267629	-2.385833	 28.452750	 0.000004	-13.902580	-9.271144	-177.783200	-0.686149	-16.049120	 1.235361	 5.251987	 71.213610	 1.112699	 2.384659	 28.388700	-0.000001	-7.957950	 7.874466	-0.468654	 1.417922	-5.844790	 0.404779	-3.814975	 10.866410	 0.829498	-91.023290	 68.811330	-177.500700	-6.094499	 1.518510	-28.662430	 20.093810	 0.168212	-2.899086	-8.048684	-11.568990	-4.547349	-2.027600	 6.559038	 9.033609	-5.188889	 0.308190	 3.541030	-5.234859	 0.342567	 0.430617	 4.682556	 20.337480	-7.501349	-8.982453	-15.178580	 1.619546	 88.815070	 67.340770	 176.974900	 8.076527	 12.276110	 17.971220	-22.561410	-2.344557	 12.087490	 5.062887	-11.153210	 5.884500	 1.803333	 3.979147	-15.098590	 4.898592	 3.004813	-9.310344	 5.224449	 0.395017	 2.014677
-0.000314	 0.056248	 1.263678	 0.006280	 3.596811	 0.925113	 21.818940	-12.398150	 176.902000	 2.264287	-20.363360	 0.933457	 2.752337	 73.144250	-3.069050	-2.385833	 28.452750	 0.000004	-14.686280	-11.327010	-178.242200	-0.626880	-18.367370	 1.426768	 4.424233	 72.137370	 2.069603	 2.384659	 28.388700	-0.000001	-11.838010	 8.371927	-0.512106	 1.425755	-6.147198	 0.386717	-3.893613	 12.091180	 0.944352	-90.940370	 68.228970	-177.336700	-5.109905	 2.696458	-31.267590	 17.510270	 0.412341	-3.823734	-7.518010	-12.432530	-5.021915	-2.027600	 6.559038	 9.033609	-5.188889	 0.308190	 3.541030	-5.234859	 0.342567	 0.430617	 4.710887	 22.105980	-8.014718	-8.822900	-16.457400	 1.530946	 88.658060	 66.229030	 176.709600	 6.567012	 14.079920	 20.181570	-20.392920	-1.510091	 12.071920	 4.266253	-11.514500	 5.699947	 1.803333	 3.979147	-15.098590	 4.898592	 3.004813	-9.310344	 5.224449	 0.395017	 2.014677
